<?xml version="1.0" encoding="UTF-8"?>
<svg id="Layer_1" data-name="Layer 1" xmlns="http://www.w3.org/2000/svg" xmlns:xlink="http://www.w3.org/1999/xlink" viewBox="0 0 787.4 741.45">
  <defs>
    <linearGradient id="linear-gradient" x1="345.7" y1="234.65" x2="345.7" y2="704.83" gradientUnits="userSpaceOnUse">
      <stop offset="0" stop-color="#f79d13"/>
      <stop offset=".1" stop-color="#f59718"/>
      <stop offset=".23" stop-color="#f28927"/>
      <stop offset=".38" stop-color="#ec7140"/>
      <stop offset=".42" stop-color="#ea684b"/>
      <stop offset=".52" stop-color="#e7624a"/>
      <stop offset=".63" stop-color="#de5349"/>
      <stop offset=".75" stop-color="#d03a48"/>
      <stop offset=".83" stop-color="#c52647"/>
      <stop offset=".99" stop-color="#972765"/>
    </linearGradient>
    <linearGradient id="linear-gradient-2" x1="323.08" y1="225.91" x2="306.06" y2="201.58" gradientUnits="userSpaceOnUse">
      <stop offset="0" stop-color="#fcd55e"/>
      <stop offset="1" stop-color="#c29c29"/>
    </linearGradient>
    <linearGradient id="linear-gradient-3" x1="500.12" y1="342.96" x2="550.33" y2="342.96" gradientUnits="userSpaceOnUse">
      <stop offset="0" stop-color="#ea684b"/>
      <stop offset=".22" stop-color="#e76248"/>
      <stop offset=".5" stop-color="#e2533f"/>
      <stop offset=".8" stop-color="#d83a32"/>
      <stop offset="1" stop-color="#d12627"/>
    </linearGradient>
    <linearGradient id="linear-gradient-4" x1="456.34" y1="231.35" x2="464.91" y2="202.91" gradientUnits="userSpaceOnUse">
      <stop offset="0" stop-color="#aabd41"/>
      <stop offset="1" stop-color="#1f6d39"/>
    </linearGradient>
    <linearGradient id="linear-gradient-5" x1="390.85" y1="189.04" x2="390.85" y2="77.32" xlink:href="#linear-gradient-2"/>
    <linearGradient id="linear-gradient-6" x1="201.18" y1="232.87" x2="117.34" y2="179.63" gradientUnits="userSpaceOnUse">
      <stop offset="0" stop-color="#e1da54"/>
      <stop offset="1" stop-color="#1f6d39"/>
    </linearGradient>
    <linearGradient id="linear-gradient-7" x1="521.56" y1="446.43" x2="620.85" y2="446.43" gradientUnits="userSpaceOnUse">
      <stop offset="0" stop-color="#f5a96d"/>
      <stop offset="1" stop-color="#eb5435"/>
    </linearGradient>
    <linearGradient id="linear-gradient-8" x1="221.97" y1="439.16" x2="140.68" y2="496.25" xlink:href="#linear-gradient-7"/>
    <linearGradient id="linear-gradient-9" x1="550.12" y1="250.48" x2="637.08" y2="202.51" xlink:href="#linear-gradient-2"/>
    <linearGradient id="linear-gradient-10" x1="267.78" y1="135.09" x2="229.25" y2="55.35" xlink:href="#linear-gradient-4"/>
    <linearGradient id="linear-gradient-11" x1="516.45" y1="563.74" x2="566.08" y2="637.12" gradientUnits="userSpaceOnUse">
      <stop offset="0" stop-color="#ea684b"/>
      <stop offset=".22" stop-color="#e5624b"/>
      <stop offset=".5" stop-color="#d6534e"/>
      <stop offset=".81" stop-color="#bf3a52"/>
      <stop offset="1" stop-color="#ad2756"/>
    </linearGradient>
    <linearGradient id="linear-gradient-12" x1="145.72" y1="345.6" x2="-3.57" y2="333.33" xlink:href="#linear-gradient-4"/>
    <linearGradient id="linear-gradient-13" x1="609.74" y1="343.01" x2="815.95" y2="343.01" xlink:href="#linear-gradient-3"/>
    <linearGradient id="linear-gradient-14" x1="264.15" y1="561.04" x2="221.96" y2="638.98" gradientUnits="userSpaceOnUse">
      <stop offset="0" stop-color="#ea684b"/>
      <stop offset=".22" stop-color="#e7624a"/>
      <stop offset=".5" stop-color="#de5349"/>
      <stop offset=".8" stop-color="#d03a48"/>
      <stop offset="1" stop-color="#c52647"/>
    </linearGradient>
    <linearGradient id="linear-gradient-15" x1="520.94" y1="119.46" x2="561.51" y2="40.66" xlink:href="#linear-gradient-4"/>
  </defs>
  <path fill="#f59712" stroke-width="0" d="m410.39,395.98c21.64-10.31,28.7-40.64,15.84-67.59-12.89-27.03-40.89-40.64-62.53-30.33-21.64,10.31-28.7,40.64-15.82,67.68,12.89,26.99,40.89,40.6,62.51,30.24Z"/>
  <path fill="url(#linear-gradient)" stroke-width="0" d="m475.25,234.65c20.81,130.23-71.88,227.86-71.88,227.86,0,0-76.41-129.28-204.91-168.3,249.95,182.77,107.69,410.62,107.69,410.62h72.35s168.19-290.23,96.74-470.18Z"/>
  <path fill="url(#linear-gradient-2)" stroke-width="0" d="m334.19,249.52c-1.4-2.08-2.82-4.29-4.24-6.72-6.61-11.42-9.64-22.03-9.64-22.03,0,0,7.63,7.99,14.24,19.34,1.38,2.41,2.57,4.78,3.68,7.04,1.04-5.44,2.26-16.61-3.02-25.82-7.29-12.61-24.08-16.54-24.08-16.54,0,0-5.01,16.52,2.28,29.16,5.28,9.21,15.57,13.74,20.78,15.57Z"/>
  <path fill="url(#linear-gradient-3)" stroke-width="0" d="m500.12,345.32c4.2,3.61,13.27,10.25,23.85,10.25,14.58,0,26.36-12.61,26.36-12.61,0,0-11.76-12.59-26.36-12.59-10.58,0-19.66,6.63-23.85,10.25,2.5-.18,5.12-.32,7.94-.32,13.18,0,23.94,2.62,23.94,2.62,0,0-10.76,2.66-23.94,2.64-2.84.11-5.44-.05-7.94-.23Z"/>
  <path fill="url(#linear-gradient-4)" stroke-width="0" d="m447.18,240.16c6.57-11.42,14.24-19.38,14.24-19.38,0,0-3.05,10.65-9.66,22.07-1.4,2.39-2.82,4.65-4.27,6.72,5.28-1.83,15.55-6.39,20.81-15.53,7.31-12.66,2.35-29.2,2.35-29.2,0,0-16.83,3.99-24.1,16.56-5.28,9.16-4.11,20.31-3.05,25.82,1.04-2.28,2.26-4.65,3.68-7.06Z"/>
  <path fill="url(#linear-gradient-5)" stroke-width="0" d="m384.96,171.42c0-29.36,5.89-53.12,5.89-53.12,0,0,5.91,23.81,5.91,53.12,0,6.21-.29,12.07-.74,17.62,8.08-9.32,22.81-29.52,22.81-53.08,0-32.41-27.98-58.65-27.98-58.65,0,0-27.98,26.25-27.98,58.65,0,23.56,14.74,43.73,22.79,53.08-.41-5.55-.7-11.4-.7-17.62Z"/>
  <path fill="url(#linear-gradient-6)" stroke-width="0" d="m197.61,263.72c20.42,11.78,45.25,9.09,57.36,6.77-5.01-2.35-10.27-5.1-15.62-8.17-25.41-14.65-43.06-31.64-43.06-31.64,0,0,23.54,6.77,48.95,21.44,5.37,3.11,10.31,6.27,14.92,9.46-4.02-11.69-14.1-34.53-34.55-46.31-28.03-16.23-64.77-5.12-64.77-5.12,0,0,8.71,37.39,36.76,53.57Z"/>
  <path fill="url(#linear-gradient-7)" stroke-width="0" d="m584.07,422.2c-20.4-11.76-45.22-9.12-57.34-6.79,5.03,2.37,10.27,5.12,15.64,8.19,25.39,14.67,43.06,31.64,43.06,31.64,0,0-23.54-6.75-48.97-21.42-5.37-3.14-10.31-6.3-14.89-9.48,4.02,11.69,14.1,34.5,34.5,46.28,28.03,16.23,64.79,5.12,64.79,5.12,0,0-8.76-37.37-36.78-53.55Z"/>
  <path fill="url(#linear-gradient-8)" stroke-width="0" d="m260.12,424.42c-4.6,3.14-9.52,6.3-14.89,9.43-25.41,14.62-48.97,21.46-48.97,21.46,0,0,17.65-17.02,43.06-31.68,5.39-3.14,10.63-5.78,15.64-8.19-12.1-2.35-36.96-5.03-57.36,6.79-28.05,16.18-36.81,53.55-36.81,53.55,0,0,36.74,11.1,64.79-5.08,20.45-11.82,30.53-34.64,34.55-46.28Z"/>
  <path fill="url(#linear-gradient-9)" stroke-width="0" d="m521.58,261.48c4.58-3.14,9.52-6.3,14.94-9.41,25.39-14.67,48.92-21.44,48.92-21.44,0,0-17.62,16.99-43.06,31.64-5.37,3.11-10.63,5.82-15.59,8.17,12.07,2.35,36.94,5.05,57.3-6.77,28.07-16.2,36.81-53.57,36.81-53.57,0,0-36.72-11.08-64.74,5.12-20.47,11.78-30.58,34.62-34.57,46.26Z"/>
  <path fill="url(#linear-gradient-10)" stroke-width="0" d="m281.65,167.74c-4.2-6.16-8.46-12.8-12.64-20.02-19.68-34.03-28.77-65.62-28.77-65.62,0,0,22.79,23.65,42.45,57.77,4.17,7.18,7.76,14.19,10.97,20.94,3.16-16.23,6.75-49.51-9.05-76.86-21.71-37.62-71.81-49.35-71.81-49.35,0,0-14.87,49.24,6.84,86.84,15.8,27.37,46.44,40.89,62.01,46.31Z"/>
  <path fill="url(#linear-gradient-11)" stroke-width="0" d="m500.07,518.2c4.2,6.16,8.51,12.77,12.66,19.97,19.7,34.17,28.77,65.67,28.77,65.67,0,0-22.79-23.67-42.49-57.75-4.15-7.22-7.76-14.24-10.97-20.94-3.09,16.23-6.7,49.44,9.07,76.82,21.73,37.6,71.81,49.38,71.81,49.38,0,0,14.94-49.29-6.79-86.88-15.84-27.35-46.46-40.87-62.06-46.26Z"/>
  <path fill="url(#linear-gradient-12)" stroke-width="0" d="m160.85,350.89c-39.33,0-71.22-7.94-71.22-7.94,0,0,31.89-7.94,71.22-7.94,8.35,0,16.23.45,23.65.99-12.48-10.83-39.51-30.6-71.15-30.6-43.4.02-78.6,37.55-78.6,37.55,0,0,35.23,37.55,78.6,37.53,31.62,0,58.65-19.75,71.13-30.56-7.42.56-15.32.97-23.63.97Z"/>
  <path fill="url(#linear-gradient-13)" stroke-width="0" d="m668.36,305.49c-31.59,0-58.63,19.68-71.13,30.56,7.45-.56,15.35-.99,23.63-.97,39.36,0,71.22,7.92,71.22,7.92,0,0-31.86,7.94-71.18,7.94-8.33,0-16.23-.43-23.67-.97,12.48,10.81,39.54,30.56,71.13,30.56,43.42,0,78.58-37.48,78.58-37.48,0,0-35.2-37.6-78.58-37.55Z"/>
  <path fill="url(#linear-gradient-14)" stroke-width="0" d="m282.71,546.12c-19.68,34.08-42.47,57.75-42.47,57.75,0,0,9.07-31.59,28.75-65.67,4.2-7.18,8.46-13.79,12.68-20.02-15.62,5.42-46.26,18.96-62.06,46.33-21.73,37.6-6.84,86.88-6.84,86.88,0,0,50.12-11.73,71.83-49.33,15.82-27.37,12.23-60.68,9.09-76.86-3.27,6.68-6.86,13.63-10.99,20.92Z"/>
  <path fill="url(#linear-gradient-15)" stroke-width="0" d="m499.01,139.8c19.66-34.08,42.45-57.73,42.45-57.73,0,0-9.07,31.57-28.77,65.62-4.15,7.15-8.42,13.83-12.61,19.99,15.59-5.39,46.24-18.93,62.01-46.28,21.73-37.6,6.84-86.9,6.84-86.9,0,0-50.08,11.76-71.81,49.35-15.86,27.37-12.25,60.66-9.12,76.86,3.25-6.66,6.82-13.68,11.01-20.92Z"/>
</svg>